<svg width="16" height="16" viewBox="0 0 16 16" fill="none" xmlns="http://www.w3.org/2000/svg">
<path d="M3.33333 6.66667C2.67406 6.66667 2.0296 6.47117 1.48143 6.1049C0.93327 5.73863 0.506028 5.21803 0.253736 4.60895C0.00144428 3.99986 -0.0645668 3.32964 0.0640506 2.68303C0.192668 2.03643 0.510137 1.44249 0.976312 0.976312C1.44249 0.510137 2.03643 0.192668 2.68303 0.0640506C3.32964 -0.0645668 3.99986 0.00144428 4.60895 0.253736C5.21803 0.506028 5.73863 0.93327 6.1049 1.48143C6.47117 2.0296 6.66667 2.67406 6.66667 3.33333C6.66578 4.21712 6.31431 5.06445 5.68938 5.68938C5.06445 6.31431 4.21712 6.66578 3.33333 6.66667Z" fill="#313060"/>
<path d="M0.471335 15.5287C0.211023 15.2684 0.211018 14.8463 0.471324 14.586L14.585 0.471678C14.8455 0.21118 15.2678 0.211175 15.5283 0.471668C15.7888 0.732161 15.7888 1.1545 15.5283 1.41499L1.41401 15.5287C1.15369 15.789 0.731647 15.789 0.471335 15.5287Z" fill="#313060"/>
<path d="M12.6667 16C12.0074 16 11.3629 15.8045 10.8148 15.4382C10.2666 15.072 9.83936 14.5514 9.58707 13.9423C9.33478 13.3332 9.26877 12.663 9.39738 12.0164C9.526 11.3698 9.84347 10.7758 10.3096 10.3096C10.7758 9.84347 11.3698 9.526 12.0164 9.39738C12.663 9.26877 13.3332 9.33478 13.9423 9.58707C14.5514 9.83936 15.072 10.2666 15.4382 10.8148C15.8045 11.3629 16 12.0074 16 12.6667C15.9991 13.5505 15.6476 14.3978 15.0227 15.0227C14.3978 15.6476 13.5505 15.9991 12.6667 16Z"/>
</svg>
