<svg width="16" height="17" viewBox="0 0 16 17" fill="none" xmlns="http://www.w3.org/2000/svg">
<path d="M8 0.5C8.26522 0.5 8.51957 0.605357 8.70711 0.792893C8.89464 0.98043 9 1.23478 9 1.5V7.5H15C15.2652 7.5 15.5196 7.60536 15.7071 7.79289C15.8946 7.98043 16 8.23478 16 8.5C16 8.76522 15.8946 9.01957 15.7071 9.20711C15.5196 9.39464 15.2652 9.5 15 9.5H9V15.5C9 15.7652 8.89464 16.0196 8.70711 16.2071C8.51957 16.3946 8.26522 16.5 8 16.5C7.73478 16.5 7.48043 16.3946 7.29289 16.2071C7.10536 16.0196 7 15.7652 7 15.5V9.5H1C0.734784 9.5 0.48043 9.39464 0.292893 9.20711C0.105357 9.01957 0 8.76522 0 8.5C0 8.23478 0.105357 7.98043 0.292893 7.79289C0.48043 7.60536 0.734784 7.5 1 7.5H7V1.5C7 1.23478 7.10536 0.98043 7.29289 0.792893C7.48043 0.605357 7.73478 0.5 8 0.5Z" fill="white"/>
</svg>
