<svg width="4" height="16" viewBox="0 0 4 16" fill="none" xmlns="http://www.w3.org/2000/svg">
<path d="M2 3.47826C3.03093 3.47826 3.86666 2.69963 3.86666 1.73913C3.86666 0.778635 3.03093 0 2 0C0.969066 0 0.133331 0.778635 0.133331 1.73913C0.133331 2.69963 0.969066 3.47826 2 3.47826Z" fill="#313060"/>
<path d="M2 9.73913C3.03093 9.73913 3.86666 8.96049 3.86666 8C3.86666 7.0395 3.03093 6.26087 2 6.26087C0.969066 6.26087 0.133331 7.0395 0.133331 8C0.133331 8.96049 0.969066 9.73913 2 9.73913Z" fill="#313060"/>
<path d="M2 16C3.03093 16 3.86666 15.2214 3.86666 14.2609C3.86666 13.3004 3.03093 12.5217 2 12.5217C0.969066 12.5217 0.133331 13.3004 0.133331 14.2609C0.133331 15.2214 0.969066 16 2 16Z" fill="#313060"/>
</svg>
