<svg width="16" height="16" viewBox="0 0 16 16" fill="none" xmlns="http://www.w3.org/2000/svg">
<path d="M15.1111 15.1111L15.12 4.19555C15.6444 3.88444 16 3.31555 16 2.66666C16 1.68889 15.2 0.888885 14.2222 0.888885C13.2444 0.888885 12.4444 1.68889 12.4444 2.66666C12.4444 3.37777 12.8622 3.98222 13.4578 4.26666L9.78667 10.1156C9.49333 9.90222 9.13778 9.77777 8.75556 9.77777C8.00889 9.77777 7.37778 10.2311 7.11111 10.88L5.20889 9.52C5.28889 9.32444 5.33333 9.11111 5.33333 8.88889C5.33333 7.90222 4.54222 7.11111 3.55556 7.11111C3.08406 7.11111 2.63187 7.29841 2.29848 7.63181C1.96508 7.96521 1.77778 8.41739 1.77778 8.88889C1.77937 9.1959 1.86044 9.49727 2.0131 9.76364C2.16576 10.03 2.3848 10.2523 2.64889 10.4089L0 15.1111H15.1111ZM14.2222 1.77777C14.7111 1.77777 15.1111 2.17777 15.1111 2.66666C15.1111 3.15555 14.7111 3.55555 14.2222 3.55555C13.7333 3.55555 13.3333 3.15555 13.3333 2.66666C13.3333 2.17777 13.7333 1.77777 14.2222 1.77777ZM3.55556 8C4.04444 8 4.44444 8.4 4.44444 8.88889C4.44444 9.37777 4.04444 9.77777 3.55556 9.77777C3.06667 9.77777 2.66667 9.37777 2.66667 8.88889C2.66667 8.4 3.06667 8 3.55556 8ZM8.75556 10.6667C9.24444 10.6667 9.64444 11.0667 9.64444 11.5556C9.64444 12.0444 9.24444 12.4444 8.75556 12.4444C8.26667 12.4444 7.86667 12.0444 7.86667 11.5556C7.86667 11.0667 8.26667 10.6667 8.75556 10.6667Z" fill="#313060"/>
</svg>
