<svg width="16" height="16" viewBox="0 0 16 16" fill="none" xmlns="http://www.w3.org/2000/svg">
<path d="M3.36842 16H0.842105C0.618765 16 0.404572 15.9113 0.246647 15.7534C0.0887215 15.5954 0 15.3812 0 15.1579V8.42105C0 8.19771 0.0887215 7.98352 0.246647 7.82559C0.404572 7.66767 0.618765 7.57895 0.842105 7.57895H3.36842C3.59176 7.57895 3.80595 7.66767 3.96388 7.82559C4.1218 7.98352 4.21053 8.19771 4.21053 8.42105V15.1579C4.21053 15.3812 4.1218 15.5954 3.96388 15.7534C3.80595 15.9113 3.59176 16 3.36842 16ZM9.26316 16H6.73684C6.5135 16 6.29931 15.9113 6.14138 15.7534C5.98346 15.5954 5.89474 15.3812 5.89474 15.1579V0.842105C5.89474 0.618765 5.98346 0.404572 6.14138 0.246647C6.29931 0.0887215 6.5135 0 6.73684 0H9.26316C9.4865 0 9.70069 0.0887215 9.85862 0.246647C10.0165 0.404572 10.1053 0.618765 10.1053 0.842105V15.1579C10.1053 15.3812 10.0165 15.5954 9.85862 15.7534C9.70069 15.9113 9.4865 16 9.26316 16ZM15.1579 16H12.6316C12.4082 16 12.194 15.9113 12.0361 15.7534C11.8782 15.5954 11.7895 15.3812 11.7895 15.1579V5.89474C11.7895 5.6714 11.8782 5.4572 12.0361 5.29928C12.194 5.14135 12.4082 5.05263 12.6316 5.05263H15.1579C15.3812 5.05263 15.5954 5.14135 15.7534 5.29928C15.9113 5.4572 16 5.6714 16 5.89474V15.1579C16 15.3812 15.9113 15.5954 15.7534 15.7534C15.5954 15.9113 15.3812 16 15.1579 16Z"/>
</svg>
