<svg width="16" height="16" viewBox="0 0 16 16" fill="none" xmlns="http://www.w3.org/2000/svg">
<path d="M6.66667 12.5217C6.66667 12.7062 6.59643 12.8832 6.4714 13.0136C6.34638 13.1441 6.17681 13.2174 6 13.2174H4V15.3043C4 15.4888 3.92976 15.6658 3.80474 15.7962C3.67971 15.9267 3.51014 16 3.33333 16C3.15652 16 2.98695 15.9267 2.86193 15.7962C2.7369 15.6658 2.66667 15.4888 2.66667 15.3043V13.2174H0.666667C0.489856 13.2174 0.320287 13.1441 0.195262 13.0136C0.070238 12.8832 0 12.7062 0 12.5217C0 12.3372 0.070238 12.1603 0.195262 12.0298C0.320287 11.8994 0.489856 11.8261 0.666667 11.8261H2.66667V9.73914C2.66667 9.55464 2.7369 9.3777 2.86193 9.24724C2.98695 9.11678 3.15652 9.04349 3.33333 9.04349C3.51014 9.04349 3.67971 9.11678 3.80474 9.24724C3.92976 9.3777 4 9.55464 4 9.73914V11.8261H6C6.17681 11.8261 6.34638 11.8994 6.4714 12.0298C6.59643 12.1603 6.66667 12.3372 6.66667 12.5217ZM6 2.08697H0.666667C0.489856 2.08697 0.320287 2.16026 0.195262 2.29072C0.070238 2.42118 0 2.59813 0 2.78262C0 2.96712 0.070238 3.14406 0.195262 3.27452C0.320287 3.40498 0.489856 3.47827 0.666667 3.47827H6C6.17681 3.47827 6.34638 3.40498 6.4714 3.27452C6.59643 3.14406 6.66667 2.96712 6.66667 2.78262C6.66667 2.59813 6.59643 2.42118 6.4714 2.29072C6.34638 2.16026 6.17681 2.08697 6 2.08697ZM10 11.8318H15.3333C15.5101 11.8318 15.6797 11.7585 15.8047 11.6281C15.9298 11.4976 16 11.3207 16 11.1362C16 10.9517 15.9298 10.7747 15.8047 10.6443C15.6797 10.5138 15.5101 10.4405 15.3333 10.4405H10C9.82319 10.4405 9.65362 10.5138 9.52859 10.6443C9.40357 10.7747 9.33333 10.9517 9.33333 11.1362C9.33333 11.3207 9.40357 11.4976 9.52859 11.6281C9.65362 11.7585 9.82319 11.8318 10 11.8318ZM15.3333 13.2117H10C9.82319 13.2117 9.65362 13.2849 9.52859 13.4154C9.40357 13.5459 9.33333 13.7228 9.33333 13.9073C9.33333 14.0918 9.40357 14.2687 9.52859 14.3992C9.65362 14.5297 9.82319 14.603 10 14.603H15.3333C15.5101 14.603 15.6797 14.5297 15.8047 14.3992C15.9298 14.2687 16 14.0918 16 13.9073C16 13.7228 15.9298 13.5459 15.8047 13.4154C15.6797 13.2849 15.5101 13.2117 15.3333 13.2117ZM10.1953 5.36149C10.2572 5.42609 10.3307 5.47734 10.4115 5.5123C10.4924 5.54726 10.5791 5.56525 10.6667 5.56525C10.7542 5.56525 10.8409 5.54726 10.9218 5.5123C11.0027 5.47734 11.0762 5.42609 11.1381 5.36149L12.6667 3.76636L14.1953 5.36149C14.2572 5.42609 14.3307 5.47733 14.4115 5.51229C14.4924 5.54725 14.5791 5.56525 14.6667 5.56525C14.7542 5.56525 14.8409 5.54725 14.9218 5.51229C15.0027 5.47733 15.0762 5.42609 15.1381 5.36149C15.2 5.29689 15.2491 5.2202 15.2826 5.1358C15.3161 5.0514 15.3334 4.96093 15.3334 4.86958C15.3334 4.77822 15.3161 4.68776 15.2826 4.60336C15.2491 4.51895 15.2 4.44226 15.1381 4.37767L13.6095 2.78262L15.1381 1.18758C15.2 1.12298 15.2491 1.04629 15.2826 0.96189C15.3161 0.877488 15.3334 0.787026 15.3334 0.695669C15.3334 0.604313 15.3161 0.513851 15.2826 0.429448C15.2491 0.345046 15.2 0.268356 15.1381 0.203757C15.0762 0.139158 15.0027 0.0879152 14.9218 0.0529546C14.8409 0.0179939 14.7542 0 14.6667 0C14.5791 0 14.4924 0.0179939 14.4115 0.0529546C14.3307 0.0879152 14.2572 0.139158 14.1953 0.203757L12.6667 1.79889L11.1381 0.203757C11.0131 0.0732934 10.8435 -4.34704e-09 10.6667 0C10.4899 4.34704e-09 10.3203 0.0732934 10.1953 0.203757C10.0702 0.33422 9.99998 0.511166 9.99998 0.695669C9.99998 0.880172 10.0702 1.05712 10.1953 1.18758L11.7238 2.78262L10.1953 4.37767C10.1333 4.44226 10.0842 4.51895 10.0507 4.60335C10.0172 4.68776 9.99998 4.77822 9.99998 4.86958C9.99998 4.96093 10.0172 5.0514 10.0507 5.1358C10.0842 5.2202 10.1333 5.29689 10.1953 5.36149Z"/>
</svg>
